<?xml version="1.0" encoding="UTF-8"?>
<svg xmlns="http://www.w3.org/2000/svg" style="stroke-dasharray:none; shape-rendering:auto; font-family:'Arial'; text-rendering:auto; fill-opacity:1; color-interpolation:auto; color-rendering:auto; font-size:12; fill:black; stroke:black; image-rendering:auto; stroke-miterlimit:10; stroke-linecap:square; stroke-linejoin:miter; font-style:normal; stroke-width:1; stroke-dashoffset:0; font-weight:normal; stroke-opacity:1;" contentScriptType="text/ecmascript" preserveAspectRatio="xMidYMid meet" zoomAndPan="magnify" version="1.0" contentStyleType="text/css" xml:xlink="http://www.w3.org/1999/xlink" width="1105" height="581"><rect x="10" y="10" width="1095" height="571" ry="0" rx="0" style="stroke:#000000; fill:#C0C0C0" /><rect x="40" y="390" width="1065" height="191" ry="0" rx="0" style="stroke:#000000; fill:#FFFFFF" /><g componentSequence="21"><text x="-485" y="47" transform="rotate(270)" text-anchor="middle" style="font-weight:bold;font-size:10px;stroke:none; fill:#434343"><tspan dy="14" x="-485">Compras</tspan></text></g><rect x="40" y="200" width="1065" height="190" ry="0" rx="0" style="stroke:#000000; fill:#FFFFFF" /><g componentSequence="3"><text x="-295" y="47" transform="rotate(270)" text-anchor="middle" style="font-weight:bold;font-size:10px;stroke:none; fill:#434343"><tspan dy="14" x="-295">Aprovador</tspan></text></g><rect x="40" y="10" width="1065" height="190" ry="0" rx="0" style="stroke:#000000; fill:#FFFFFF" /><g componentSequence="2"><text x="-105" y="47" transform="rotate(270)" text-anchor="middle" style="font-weight:bold;font-size:10px;stroke:none; fill:#434343"><tspan dy="14" x="-105">Solicitante</tspan></text></g><g componentSequence="1"><text x="-295" y="17" transform="rotate(270)" text-anchor="middle" style="font-weight:bold;font-size:10px;stroke:none; fill:#434343"><tspan dy="14" x="-295">Solicitação de Compras</tspan></text></g><g sequence="4"><ellipse cx="167" cy="99" rx="17" ry="17" stroke-width="1" style="fill:url(#linearGradient66FF6696FF96B6FFB6_1976776023);" stroke="336633" /></g><g sequence="5"><rect x="260" y="269" width="106" height="56" ry="5" rx="5" style="fill:url(#linearGradientF8FBFEEDF5FCDEEDFAD4E7F8E2E5E9_2064958877);" stroke="191970" /></g><g componentSequence="5"><text x="313" y="286" text-anchor="middle" style="font-weight:bold;font-size:10px;stroke:none; fill:#333399"><tspan dy="14" x="313">Gestor</tspan></text></g><g sequence="9"><polygon points=" 460 276 490 246 520 276 490 306 460 276" style="fill:url(#linearGradientFAFBFCFFFFCC_2133548583);" stroke="000000" /></g><g componentSequence="9"><text x="490" y="316" text-anchor="middle" style="font-weight:bold;font-size:10px;stroke:none; fill:#333399"><tspan dy="14" x="490">Aprovad</tspan><tspan dy="14" x="490">o?</tspan></text></g><g sequence="11"><rect x="437" y="462" width="106" height="70" ry="5" rx="5" style="fill:url(#linearGradientF8FBFEEDF5FCDEEDFAD4E7F8E2E5E9_975818662);" stroke="191970" /></g><g componentSequence="11"><text x="490" y="486" text-anchor="middle" style="font-weight:bold;font-size:10px;stroke:none; fill:#333399"><tspan dy="14" x="490">Efetuar Compra</tspan></text></g><g sequence="13"><ellipse cx="599" cy="296" rx="17" ry="17" stroke-width="3" style="fill:url(#linearGradientFF6666FF9696FFB6B6_1455172665);" stroke="993333" /></g><g sequence="15"><polygon points=" 585 476 615 446 645 476 615 506 585 476" style="fill:url(#linearGradientFAFBFCFFFFCC_198783838);" stroke="000000" /></g><g componentSequence="15"><text x="615" y="516" text-anchor="middle" style="font-weight:bold;font-size:10px;stroke:none; fill:#333399"><tspan dy="14" x="615">Aprovad</tspan><tspan dy="14" x="615">o?</tspan></text></g><g sequence="17"><ellipse cx="737" cy="447" rx="17" ry="17" stroke-width="3" style="fill:url(#linearGradientFF6666FF9696FFB6B6_782667364);" stroke="993333" /></g><g sequence="19"><ellipse cx="737" cy="537" rx="17" ry="17" stroke-width="3" style="fill:url(#linearGradientFF6666FF9696FFB6B6_1510355177);" stroke="993333" /></g><rect x="820" y="420" width="105" height="55" ry="5" rx="5" style="stroke:none; fill:#FFFFE0" /><g componentSequence="22"><text x="830" y="443" text-anchor="left" style="font-weight:bold;font-size:10px;stroke:none; fill:#000000"><tspan dy="14" x="830">Reprovado por</tspan><tspan dy="14" x="830">Compras</tspan></text></g><path style="fill:none; stroke-width:1; stroke:#000000;" d="M840.0 420.0 L820.0 420.0 L820.0 475.0 L840.0 475.0" /><rect x="830" y="510" width="105" height="55" ry="5" rx="5" style="stroke:none; fill:#FFFFE0" /><g componentSequence="23"><text x="840" y="533" text-anchor="left" style="font-weight:bold;font-size:10px;stroke:none; fill:#000000"><tspan dy="14" x="840">Compra</tspan><tspan dy="14" x="840">Efetuada</tspan></text></g><path style="fill:none; stroke-width:1; stroke:#000000;" d="M850.0 510.0 L830.0 510.0 L830.0 565.0 L850.0 565.0" /><rect x="685" y="269" width="105" height="55" ry="5" rx="5" style="stroke:none; fill:#FFFFE0" /><g componentSequence="24"><text x="695" y="292" text-anchor="left" style="font-weight:bold;font-size:10px;stroke:none; fill:#000000"><tspan dy="14" x="695">Reprovado</tspan><tspan dy="14" x="695">Gestor</tspan></text></g><path style="fill:none; stroke-width:1; stroke:#000000;" d="M705.0 269.0 L685.0 269.0 L685.0 324.0 L705.0 324.0" /><g componentSequence="6"><text x="177" y="253" style="font-size:10px;font-weight:none;stroke:none; fill:#333399" text-anchor="left" /></g><g componentSequence="10"><text x="423" y="297" style="font-size:10px;font-weight:none;stroke:none; fill:#333399" text-anchor="left" /></g><g componentSequence="12"><text x="500" y="405" style="font-size:10px;font-weight:none;stroke:none; fill:#333399" text-anchor="left" /></g><g componentSequence="14"><text x="561" y="296" style="font-size:10px;font-weight:none;stroke:none; fill:#333399" text-anchor="left" /></g><g componentSequence="16"><text x="574" y="497" style="font-size:10px;font-weight:none;stroke:none; fill:#333399" text-anchor="left" /></g><g componentSequence="18"><text x="692" y="469" style="font-size:10px;font-weight:none;stroke:none; fill:#333399" text-anchor="left" /></g><g componentSequence="20"><text x="692" y="519" style="font-size:10px;font-weight:none;stroke:none; fill:#333399" text-anchor="left" /></g><g componentSequence="25"><text x="797" y="447" style="font-size:10px;font-weight:none;stroke:none; fill:#333399" text-anchor="left" /></g><g componentSequence="26"><text x="802" y="537" style="font-size:10px;font-weight:none;stroke:none; fill:#333399" text-anchor="left" /></g><g componentSequence="27"><text x="661" y="296" style="font-size:10px;font-weight:none;stroke:none; fill:#333399" text-anchor="left" /></g><path style="fill:none; stroke:#000000;stroke-width:1" d="M167.0 117.0 L167.0 296.0 L259.0 296.0" /><polygon style="fill:#000000; stroke:#000000;" points=" 249 291 259 296 249 301 251 296" /><path style="fill:none; stroke:#000000;stroke-width:1" d="M366.0 297.0 L459.0 297.0" /><polygon style="fill:#000000; stroke:#000000;" points=" 449 292 459 297 449 302 451 297" /><path style="fill:none; stroke:#000000;stroke-width:1" d="M490.0 348.0 L490.0 461.0" /><polygon style="fill:#000000; stroke:#000000;" points=" 495 451 490 461 485 451 490 453" /><path style="fill:none; stroke:#000000;stroke-width:1" d="M520.0 296.0 L582.0 296.0" /><polygon style="fill:#000000; stroke:#000000;" points=" 572 291 582 296 572 301 574 296" /><path style="fill:none; stroke:#000000;stroke-width:1" d="M543.0 497.0 L584.0 497.0" /><polygon style="fill:#000000; stroke:#000000;" points=" 574 492 584 497 574 502 576 497" /><path style="fill:none; stroke:#000000;stroke-dasharray:2" d="M684.0 296.0 L617.0 296.0" /><path style="fill:none; stroke:#000000;stroke-width:1" d="M645.0 484.0 L721.0 453.0" /><polygon style="fill:#000000; stroke:#000000;" points=" 710 452 721 453 714 461 714 456" /><path style="fill:none; stroke:#000000;stroke-width:1" d="M645.0 507.0 L720.0 532.0" /><polygon style="fill:#000000; stroke:#000000;" points=" 712 524 720 532 709 534 712 529" /><path style="fill:none; stroke:#000000;stroke-dasharray:2" d="M819.0 447.0 L755.0 447.0" /><path style="fill:none; stroke:#000000;stroke-dasharray:2" d="M829.0 537.0 L755.0 537.0" /><defs><linearGradient xmlns:xlink="http://www.w3.org/1999/xlink" xlink:href="#linearGradient66FF6696FF96B6FFB6" id="linearGradient66FF6696FF96B6FFB6_1976776023" x1="0" y1="82.0" x2="0" y2="117.0" gradientUnits="userSpaceOnUse" xlink:type="simple" xlink:actuate="onLoad" xlink:show="other" /><linearGradient id="linearGradient66FF6696FF96B6FFB6"><stop style="stop-color:#66FF66;stop-opacity:1;" offset="0.0" id="stop66FF66" /><stop style="stop-color:#96FF96;stop-opacity:1;" offset="0.5" id="stop96FF96" /><stop style="stop-color:#B6FFB6;stop-opacity:1;" offset="1.0" id="stopB6FFB6" /></linearGradient><linearGradient xmlns:xlink="http://www.w3.org/1999/xlink" xlink:href="#linearGradientF8FBFEEDF5FCDEEDFAD4E7F8E2E5E9" id="linearGradientF8FBFEEDF5FCDEEDFAD4E7F8E2E5E9_2064958877" x1="0" y1="269.0" x2="0" y2="375.0" gradientUnits="userSpaceOnUse" xlink:type="simple" xlink:actuate="onLoad" xlink:show="other" /><linearGradient id="linearGradientF8FBFEEDF5FCDEEDFAD4E7F8E2E5E9"><stop style="stop-color:#F8FBFE;stop-opacity:1;" offset="0.0" id="stopF8FBFE" /><stop style="stop-color:#EDF5FC;stop-opacity:1;" offset="0.25" id="stopEDF5FC" /><stop style="stop-color:#DEEDFA;stop-opacity:1;" offset="0.5" id="stopDEEDFA" /><stop style="stop-color:#D4E7F8;stop-opacity:1;" offset="0.75" id="stopD4E7F8" /><stop style="stop-color:#E2E5E9;stop-opacity:1;" offset="1.0" id="stopE2E5E9" /></linearGradient><linearGradient xmlns:xlink="http://www.w3.org/1999/xlink" xlink:href="#linearGradientFAFBFCFFFFCC" id="linearGradientFAFBFCFFFFCC_2133548583" x1="0" y1="246.0" x2="0" y2="306.0" gradientUnits="userSpaceOnUse" xlink:type="simple" xlink:actuate="onLoad" xlink:show="other" /><linearGradient id="linearGradientFAFBFCFFFFCC"><stop style="stop-color:#FAFBFC;stop-opacity:1;" offset="0.0" id="stopFAFBFC" /><stop style="stop-color:#FFFFCC;stop-opacity:1;" offset="1.0" id="stopFFFFCC" /></linearGradient><linearGradient xmlns:xlink="http://www.w3.org/1999/xlink" xlink:href="#linearGradientF8FBFEEDF5FCDEEDFAD4E7F8E2E5E9" id="linearGradientF8FBFEEDF5FCDEEDFAD4E7F8E2E5E9_975818662" x1="0" y1="462.0" x2="0" y2="568.0" gradientUnits="userSpaceOnUse" xlink:type="simple" xlink:actuate="onLoad" xlink:show="other" /><linearGradient xmlns:xlink="http://www.w3.org/1999/xlink" xlink:href="#linearGradientFF6666FF9696FFB6B6" id="linearGradientFF6666FF9696FFB6B6_1455172665" x1="0" y1="279.0" x2="0" y2="314.0" gradientUnits="userSpaceOnUse" xlink:type="simple" xlink:actuate="onLoad" xlink:show="other" /><linearGradient id="linearGradientFF6666FF9696FFB6B6"><stop style="stop-color:#FF6666;stop-opacity:1;" offset="0.0" id="stopFF6666" /><stop style="stop-color:#FF9696;stop-opacity:1;" offset="0.5" id="stopFF9696" /><stop style="stop-color:#FFB6B6;stop-opacity:1;" offset="1.0" id="stopFFB6B6" /></linearGradient><linearGradient xmlns:xlink="http://www.w3.org/1999/xlink" xlink:href="#linearGradientFAFBFCFFFFCC" id="linearGradientFAFBFCFFFFCC_198783838" x1="0" y1="446.0" x2="0" y2="506.0" gradientUnits="userSpaceOnUse" xlink:type="simple" xlink:actuate="onLoad" xlink:show="other" /><linearGradient xmlns:xlink="http://www.w3.org/1999/xlink" xlink:href="#linearGradientFF6666FF9696FFB6B6" id="linearGradientFF6666FF9696FFB6B6_782667364" x1="0" y1="430.0" x2="0" y2="465.0" gradientUnits="userSpaceOnUse" xlink:type="simple" xlink:actuate="onLoad" xlink:show="other" /><linearGradient xmlns:xlink="http://www.w3.org/1999/xlink" xlink:href="#linearGradientFF6666FF9696FFB6B6" id="linearGradientFF6666FF9696FFB6B6_1510355177" x1="0" y1="520.0" x2="0" y2="555.0" gradientUnits="userSpaceOnUse" xlink:type="simple" xlink:actuate="onLoad" xlink:show="other" /></defs></svg>
